<?xml version="1.0" encoding="UTF-8" standalone="no"?>
<svg width="100" height="100" viewBox="0 0 100 100" fill="none" xmlns="http://www.w3.org/2000/svg">
  <circle cx="50" cy="50" r="50" fill="#E0E0E0"/>
  <path d="M50 33C45.5817 33 42 36.5817 42 41C42 45.4183 45.5817 49 50 49C54.4183 49 58 45.4183 58 41C58 36.5817 54.4183 33 50 33Z" fill="#9E9E9E"/>
  <path d="M37 64C37 61.2386 39.2386 59 42 59H58C60.7614 59 63 61.2386 63 64V83H37V64Z" fill="#9E9E9E"/>
  <path d="M37 64C37 57 42 51 47 48.5C48 48 52 49 53 49.5C58 51 63 57 63 64" fill="#9E9E9E"/>
</svg>