<?xml version="1.0" encoding="UTF-8" standalone="no"?>
<svg xmlns="http://www.w3.org/2000/svg" width="800" height="300" viewBox="0 0 800 300">
  <!-- Arrow and 'AC' elements -->
  <g id="logo-graphic">
    <!-- Blue diagonal bar (part of "A") -->
    <path d="M53,385 L145,190" stroke="#0B4D6E" stroke-width="40" stroke-linecap="round" fill="none" transform="translate(0, -100)"/>
    
    <!-- Green arrow -->
    <path d="M145,190 L290,80" stroke="#19A037" stroke-width="40" stroke-linecap="round" fill="none" transform="translate(0, -100)"/>
    <path d="M230,140 L290,80 L220,20" stroke="#19A037" stroke-width="40" stroke-linecap="round" fill="none" transform="translate(0, -100)"/>
    
    <!-- Green "C" -->
    <path d="M270,280 C290,280 310,270 320,250 C330,230 330,210 320,190 C310,170 290,160 270,160" 
          stroke="#19A037" stroke-width="40" stroke-linecap="round" fill="none" transform="translate(0, -100)"/>
  </g>

  <!-- Text elements -->
  <g id="logo-text">
    <!-- "FUTURE" text -->
    <path d="M355,130 L540,130 M355,130 L355,210 M355,170 L480,170 M600,130 L600,210 M600,130 L670,130 M720,130 L720,210 M720,130 L790,130 M790,170 L720,170 M840,130 L840,210 M840,130 L910,130" 
          stroke="#0B4D6E" stroke-width="20" stroke-linecap="round" fill="none" transform="translate(-10, -30)"/>
    
    <!-- "ACCOUNTANT" text -->
    <path d="M355,250 L425,250 L425,330 M355,290 L425,290 M475,250 C455,250 435,270 435,290 C435,310 455,330 475,330 C495,330 515,310 515,290 C515,270 495,250 475,250 M555,250 C535,250 515,270 515,290 C515,310 535,330 555,330 C575,330 595,310 595,290 C595,270 575,250 555,250 M635,250 C615,250 595,270 595,290 C615,310 635,330 655,330 M655,250 L655,330 M695,250 L695,330 M695,250 L765,250 M695,290 L765,290 M785,250 L855,250 L855,330 M785,290 L855,290 M885,250 L885,330 M885,250 L955,250" 
          stroke="#19A037" stroke-width="20" stroke-linecap="round" fill="none" transform="translate(-10, -30)"/>
    
    <!-- "COACHING AND TRAINING SERVICES" text -->
    <text x="155" y="280" font-family="Arial, sans-serif" font-size="30" font-weight="bold" fill="#444444">COACHING AND TRAINING SERVICES</text>
  </g>
</svg>