<?xml version="1.0" encoding="UTF-8" standalone="no"?>
<svg xmlns="http://www.w3.org/2000/svg" width="550" height="200" viewBox="0 0 550 200">
  <!-- BLUE AC -->
  <path d="M30,150 L60,80" stroke="#004A87" stroke-width="20" stroke-linecap="square" fill="none" />
  
  <!-- Green Arrow -->
  <path d="M60,80 L100,50" stroke="#19A037" stroke-width="20" stroke-linecap="square" fill="none" />
  <path d="M100,50 L80,50 M100,50 L85,65" stroke="#19A037" stroke-width="20" stroke-linecap="square" fill="none" />
  
  <!-- Green C -->
  <path d="M100,110 C110,110 120,105 125,95 C130,85 130,75 125,65 C120,55 110,50 100,50" 
        stroke="#19A037" stroke-width="20" stroke-linecap="square" fill="none" />
  
  <!-- FUTURE -->
  <path d="M150,50 L200,50 M150,50 L150,85 M150,67 L185,67" stroke="#004A87" stroke-width="10" stroke-linecap="square" fill="none" />
  <path d="M210,50 L210,85 M210,50 L240,50" stroke="#004A87" stroke-width="10" stroke-linecap="square" fill="none" />
  <path d="M250,50 L280,50 M265,50 L265,85" stroke="#004A87" stroke-width="10" stroke-linecap="square" fill="none" />
  <path d="M290,50 L290,85 M290,50 L320,50 M290,67 L310,67" stroke="#004A87" stroke-width="10" stroke-linecap="square" fill="none" />
  <path d="M330,50 L330,85 M330,50 L360,50" stroke="#004A87" stroke-width="10" stroke-linecap="square" fill="none" />
  
  <!-- ACCOUNTANT -->
  <path d="M150,100 L165,90 L180,100 M157,120 L172,120" stroke="#19A037" stroke-width="10" stroke-linecap="square" fill="none" />
  <path d="M195,100 C185,100 180,105 180,110 C180,115 185,120 195,120 C205,120 210,115 210,110 C210,105 205,100 195,100" stroke="#19A037" stroke-width="10" stroke-linecap="square" fill="none" />
  <path d="M225,100 C215,100 210,105 210,110 C210,115 215,120 225,120 C235,120 240,115 240,110 C240,105 235,100 225,100" stroke="#19A037" stroke-width="10" stroke-linecap="square" fill="none" />
  <path d="M255,100 C245,100 240,105 240,110 C240,115 245,120 255,120 C265,120 270,115 270,110 C270,105 265,100 255,100" stroke="#19A037" stroke-width="10" stroke-linecap="square" fill="none" />
  <path d="M280,100 L280,120 M280,100 L300,100 M280,110 L295,110" stroke="#19A037" stroke-width="10" stroke-linecap="square" fill="none" />
  <path d="M310,100 L310,120 M310,100 L330,100 M310,110 L325,110" stroke="#19A037" stroke-width="10" stroke-linecap="square" fill="none" />
  <path d="M340,100 L340,120 M340,100 L360,120 M360,100 L360,120" stroke="#19A037" stroke-width="10" stroke-linecap="square" fill="none" />
  
  <!-- COACHING AND TRAINING SERVICES -->
  <text x="125" y="150" font-family="Arial, sans-serif" font-size="13" font-weight="bold" fill="#444444">COACHING AND TRAINING SERVICES</text>
</svg>