<?xml version="1.0" encoding="UTF-8" standalone="no"?>
<svg width="400" height="200" viewBox="0 0 400 200" xmlns="http://www.w3.org/2000/svg">
  <!-- Background -->
  <rect width="400" height="200" fill="transparent" />

  <!-- Arrow shape with gradient fill -->
  <defs>
    <linearGradient id="arrowGradient" x1="0%" y1="0%" x2="100%" y2="100%">
      <stop offset="0%" style="stop-color:#007ACC" />
      <stop offset="100%" style="stop-color:#2ECC71" />
    </linearGradient>
  </defs>

  <!-- Upward arrow with stylized design -->
  <path d="M80,150 L150,80 L130,80 L170,40 L210,80 L190,80 L260,150 L230,150 L200,120 L170,150 L80,150" 
        fill="url(#arrowGradient)" 
        stroke="#004080" 
        stroke-width="2" />

  <!-- F.A.C.T.S Letters with stylized integration -->
  <g transform="translate(100, 90)">
    <!-- F -->
    <path d="M0,0 L0,60 L10,60 L10,40 L25,40 L25,30 L10,30 L10,10 L28,10 L28,0 Z" fill="#007ACC" />
    <!-- A -->
    <path d="M38,60 L48,60 L52,45 L68,45 L72,60 L82,60 L65,0 L55,0 Z M54,35 L60,15 L66,35 Z" fill="#007ACC" />
    <!-- C -->
    <path d="M90,0 L90,10 C85,10 81,11 78,13 C75,15 73,18 72,22 C71,26 70,31 70,38 C70,45 71,50 72,54 C73,58 75,61 78,63 C81,65 85,66 90,66 L90,56 C87,56 85,55 83,53 C81,51 80,48 80,38 C80,28 81,25 83,23 C85,21 87,20 90,20 L90,10 Z" fill="#2ECC71" />
    <!-- T -->
    <path d="M100,0 L100,10 L110,10 L110,60 L120,60 L120,10 L130,10 L130,0 Z" fill="#2ECC71" />
    <!-- S -->
    <path d="M145,0 C138,0 133,3 133,10 L133,20 C133,25 135,28 140,30 L150,33 C152,34 153,35 153,38 L153,46 C153,49 151,50 145,50 L145,60 C152,60 163,58 163,46 L163,36 C163,31 161,28 156,26 L146,23 C144,22 143,21 143,18 L143,14 C143,11 145,10 145,10 Z" fill="#2ECC71" />
  </g>

  <!-- Tag line -->
  <text x="200" y="170" font-family="Arial, sans-serif" font-size="12" text-anchor="middle" fill="#333333">FUTURE ACCOUNTANTS COACHING AND TRAINING SERVICES</text>
</svg>