<?xml version="1.0" encoding="UTF-8" standalone="no"?>
<svg xmlns="http://www.w3.org/2000/svg" width="700" height="230" viewBox="0 0 700 230">
  <!-- Blue diagonal line (left part of logo) -->
  <path d="M55,180 L110,70" stroke="#004B87" stroke-width="30" stroke-linecap="round" fill="none" />
  
  <!-- Green arrow -->
  <path d="M110,70 L200,20" stroke="#1A9538" stroke-width="30" stroke-linecap="round" fill="none" />
  <path d="M155,75 L200,20 L155,20" stroke="#1A9538" stroke-width="28" stroke-linecap="round" fill="none" />
  
  <!-- Green C -->
  <path d="M185,175 C210,175 230,160 240,140 C250,120 245,95 235,80 C225,65 210,55 185,55" 
        stroke="#1A9538" stroke-width="30" stroke-linecap="round" fill="none" />
  
  <!-- FUTURE (in blue) -->
  <path d="M355,35 L500,35" stroke="#004B87" stroke-width="18" stroke-linecap="butt" fill="none" />
  <path d="M355,35 L355,100" stroke="#004B87" stroke-width="18" stroke-linecap="butt" fill="none" />
  <path d="M355,68 L460,68" stroke="#004B87" stroke-width="18" stroke-linecap="butt" fill="none" />
  
  <path d="M520,35 L520,100" stroke="#004B87" stroke-width="18" stroke-linecap="butt" fill="none" />
  <path d="M520,35 L585,35" stroke="#004B87" stroke-width="18" stroke-linecap="butt" fill="none" />
  
  <path d="M600,35 L600,100" stroke="#004B87" stroke-width="18" stroke-linecap="butt" fill="none" />
  <path d="M600,35 L665,35" stroke="#004B87" stroke-width="18" stroke-linecap="butt" fill="none" />
  <path d="M600,68 L665,68" stroke="#004B87" stroke-width="18" stroke-linecap="butt" fill="none" />
  
  <!-- ACCOUNTANT (in green) -->
  <path d="M355,130 L370,115 L385,130" stroke="#1A9538" stroke-width="18" stroke-linecap="butt" fill="none" />
  <path d="M355,165 L385,165" stroke="#1A9538" stroke-width="18" stroke-linecap="butt" fill="none" />
  <path d="M325,165 L355,110 L385,165" stroke="#1A9538" stroke-width="18" stroke-linecap="butt" fill="none" />
  
  <path d="M410,130 C390,130 380,145 380,155 C380,165 390,180 410,180 C430,180 440,165 440,155 C440,145 430,130 410,130" stroke="#1A9538" stroke-width="18" stroke-linecap="butt" fill="none" />
  
  <path d="M465,130 C445,130 435,145 435,155 C435,165 445,180 465,180 C485,180 495,165 495,155 C495,145 485,130 465,130" stroke="#1A9538" stroke-width="18" stroke-linecap="butt" fill="none" />
  
  <path d="M520,130 C500,130 490,145 490,155 C490,165 500,180 520,180 C540,180 550,165 550,155 C550,145 540,130 520,130" stroke="#1A9538" stroke-width="18" stroke-linecap="butt" fill="none" />
  
  <path d="M570,130 L570,180" stroke="#1A9538" stroke-width="18" stroke-linecap="butt" fill="none" />
  <path d="M570,130 L610,130" stroke="#1A9538" stroke-width="18" stroke-linecap="butt" fill="none" />
  <path d="M570,155 L600,155" stroke="#1A9538" stroke-width="18" stroke-linecap="butt" fill="none" />
  
  <path d="M630,130 L630,180" stroke="#1A9538" stroke-width="18" stroke-linecap="butt" fill="none" />
  <path d="M630,130 L670,130" stroke="#1A9538" stroke-width="18" stroke-linecap="butt" fill="none" />
  <path d="M630,155 L660,155" stroke="#1A9538" stroke-width="18" stroke-linecap="butt" fill="none" />
  
  <!-- COACHING AND TRAINING SERVICES (in dark gray) -->
  <text x="145" y="215" font-family="Arial, sans-serif" font-size="22" font-weight="bold" fill="#444444">COACHING AND TRAINING SERVICES</text>
</svg>