<?xml version="1.0" encoding="UTF-8" standalone="no"?>
<svg xmlns="http://www.w3.org/2000/svg" width="800" height="280" viewBox="0 0 800 280">
  <!-- Blue slant line (left side of A) -->
  <path d="M54,238 L142,90" stroke="#004a87" stroke-width="42" stroke-linecap="round" fill="none"/>
  
  <!-- Green arrow -->
  <path d="M142,90 L267,40" stroke="#19a037" stroke-width="42" stroke-linecap="round" fill="none"/>
  <path d="M267,40 L200,40" stroke="#19a037" stroke-width="42" stroke-linecap="round" fill="none"/>
  <path d="M267,40 L220,85" stroke="#19a037" stroke-width="42" stroke-linecap="round" fill="none"/>
  
  <!-- Green C -->
  <path d="M240,200 C270,200 295,182 308,160 C320,138 320,112 308,90 C295,68 270,50 240,50" 
        stroke="#19a037" stroke-width="42" stroke-linecap="round" fill="none"/>
  
  <!-- FUTURE text in blue -->
  <g fill="#004a87">
    <!-- F -->
    <path d="M357,80 L357,200 M357,80 L477,80 M357,140 L450,140" 
          stroke="#004a87" stroke-width="24" stroke-linecap="square" fill="none"/>
    <!-- U -->
    <path d="M497,80 L497,200 M497,80 M497,200 L570,200 M570,80 L570,200" 
          stroke="#004a87" stroke-width="24" stroke-linecap="square" fill="none"/>
    <!-- T -->
    <path d="M590,80 L670,80 M630,80 L630,200" 
          stroke="#004a87" stroke-width="24" stroke-linecap="square" fill="none"/>
    <!-- U -->
    <path d="M690,80 L690,200 M690,200 L763,200 M763,80 L763,200" 
          stroke="#004a87" stroke-width="24" stroke-linecap="square" fill="none"/>
    <!-- R -->  
    <path d="M783,80 L783,200 M783,80 L840,80 M840,80 C865,80 880,95 880,115 C880,135 865,150 840,150 M840,150 L880,200" 
          stroke="#004a87" stroke-width="24" stroke-linecap="square" fill="none"/>
    <!-- E -->
    <path d="M900,80 L900,200 M900,80 L980,80 M900,140 L970,140 M900,200 L980,200" 
          stroke="#004a87" stroke-width="24" stroke-linecap="square" fill="none"/>
  </g>
  
  <!-- ACCOUNTANT text in green -->
  <g fill="#19a037">
    <!-- A -->
    <path d="M357,260 L357,310 M380,230 L357,310 M380,230 L403,310 M357,280 L403,280" 
          stroke="#19a037" stroke-width="22" stroke-linecap="square" fill="none"/>
    <!-- C -->
    <path d="M425,230 C400,230 380,250 380,270 C380,290 400,310 425,310" 
          stroke="#19a037" stroke-width="22" stroke-linecap="square" fill="none"/>
    <!-- C -->
    <path d="M475,230 C450,230 430,250 430,270 C430,290 450,310 475,310" 
          stroke="#19a037" stroke-width="22" stroke-linecap="square" fill="none"/>
    <!-- O -->
    <path d="M525,230 C500,230 480,250 480,270 C480,290 500,310 525,310 C550,310 570,290 570,270 C570,250 550,230 525,230" 
          stroke="#19a037" stroke-width="22" stroke-linecap="square" fill="none"/>
    <!-- U -->
    <path d="M590,230 L590,310 M590,310 L645,310 M645,230 L645,310" 
          stroke="#19a037" stroke-width="22" stroke-linecap="square" fill="none"/>
    <!-- N -->
    <path d="M665,230 L665,310 M665,230 L720,310 M720,230 L720,310" 
          stroke="#19a037" stroke-width="22" stroke-linecap="square" fill="none"/>
    <!-- T -->
    <path d="M740,230 L800,230 M770,230 L770,310" 
          stroke="#19a037" stroke-width="22" stroke-linecap="square" fill="none"/>
    <!-- A -->
    <path d="M820,310 L820,230 M820,310 L865,310 M865,230 L865,310 M820,270 L865,270" 
          stroke="#19a037" stroke-width="22" stroke-linecap="square" fill="none"/>
    <!-- N -->
    <path d="M885,230 L885,310 M885,230 L940,310 M940,230 L940,310" 
          stroke="#19a037" stroke-width="22" stroke-linecap="square" fill="none"/>
    <!-- T -->
    <path d="M960,230 L1020,230 M990,230 L990,310" 
          stroke="#19a037" stroke-width="22" stroke-linecap="square" fill="none"/>
  </g>
  
  <!-- COACHING AND TRAINING SERVICES in gray -->
  <text x="145" y="370" font-family="Arial, sans-serif" font-weight="bold" font-size="28" fill="#444444">COACHING AND TRAINING SERVICES</text>
</svg>